# xmcd CD database file
#
# Track frame offsets:
#	150
#	9380
#	22167
#	36227
#	50552
#	63860
#	78067
#	91905
#	104738
#	118503
#	130332
#	140783
#	155315
#	171745
#	191615
#	205095
#	224117
#	248122
#	261653
#	275568
#	291900
#	307550
#
# Disc length: 4271 seconds
#
# Revision: 0
# Processed by: cddbd v1.4PL0 Copyright (c) Steve Scherf et al.
# Submitted via: CDex 1.40Beta8
#
DISCID=4f10ad16
DTITLE=William Woods - Somewhere in Time_Unchained Melody
DYEAR=1994
DGENRE=Native American
TTITLE0=Somewhere In Time
TTITLE1=Chariots of Fire
TTITLE2=Memory from "Cats"
TTITLE3=The Man from Snowy River, Main Title and Jessica's Theme
TTITLE4=Wind Beneath My Wings
TTITLE5=Theme from "Terms of Endearment"
TTITLE6=Don't Cry For Me Argentina
TTITLE7=All I Ask Of You
TTITLE8=Somewhere Out There
TTITLE9=Time In A Bottle
TTITLE10=Ballade Pour Adeline
TTITLE11=Theme from "Ice Castles"
TTITLE12=(Everything I Do) I Do It For You
TTITLE13=Endless Love
TTITLE14=September Morn
TTITLE15=The First Time I Saw Your Face
TTITLE16=Moonlight Sonata
TTITLE17=In My Life
TTITLE18=Theme from "Love Story"
TTITLE19=Separate Lives
TTITLE20=One_What I Did For Love
TTITLE21=Unchained Melody
EXTD=YEAR: 1994 ID3G: 64
EXTT0=
EXTT1=
EXTT2=
EXTT3=
EXTT4=
EXTT5=
EXTT6=
EXTT7=
EXTT8=
EXTT9=
EXTT10=
EXTT11=
EXTT12=
EXTT13=
EXTT14=
EXTT15=
EXTT16=
EXTT17=
EXTT18=
EXTT19=
EXTT20=
EXTT21=
PLAYORDER=
